<?xml version="1.0" encoding="UTF-8"?><svg id="Camada_1" xmlns="http://www.w3.org/2000/svg" viewBox="0 0 1080 1080"><defs><style>.cls-1{fill:#494949;stroke-width:0px;}</style></defs><g id="FtASpM.tif"><path class="cls-1" d="M874.86,945.97H231.63c-1.22-.45-2.4-1.11-3.66-1.33-47.69-8.24-80.23-46.56-80.26-95.43-.11-205.93-.13-411.85.17-617.78.02-10.89,1.79-22.26,5.23-32.57,13.27-39.8,49.16-64.22,92.91-64.23,204.83-.04,409.65-.02,614.48-.01,2.11,0,4.23-.01,6.33.09,29.96,1.51,54.14,14.14,72.68,37.7,10.72,13.62,15.74,29.59,19.32,46.19v643.38c-.51,1.74-1.15,3.45-1.51,5.22-7.68,37.44-29.72,62.22-65.81,74.48-5.41,1.84-11.09,2.88-16.64,4.29ZM683.48,882.58h8.75c55.18,0,110.37,0,165.55,0,25.72,0,37.68-12.01,37.68-37.83,0-203.09,0-406.18,0-609.27,0-25.32-12.07-37.47-37.23-37.48-203.31,0-406.62,0-609.93,0-25.17,0-37.26,12.15-37.27,37.44,0,203.09,0,406.18,0,609.27,0,25.85,11.94,37.86,37.64,37.86,109.05,0,218.1,0,327.14,0h8.6v-258.68h-94.11v-98.08h94.64c0-3.74-.01-6.61,0-9.48.09-21.92-.54-43.87.41-65.75,2.78-63.75,47.54-118.22,109.4-133.78,32.78-8.25,66.21-3.69,99.36-4.46.39,0,.79.61,1.11.87v97.12c-2.99,0-5.57,0-8.14,0-18.75,0-37.5-.27-56.24.1-24.82.49-44.71,16.17-46.55,39.92-1.93,24.84-.43,49.95-.43,75.76h113.35c-5.46,33.08-10.77,65.29-16.22,98.29h-97.51v258.16Z"/></g></svg>