<?xml version="1.0" encoding="UTF-8"?><svg id="Camada_1" xmlns="http://www.w3.org/2000/svg" viewBox="0 0 1080 1080"><defs><style>.cls-1{fill:#494949;stroke-width:0px;}</style></defs><g id="lcczI1.tif"><path class="cls-1" d="M319.81,134.61c146.79,0,293.58,0,440.36,0,2.03.48,4.04,1.17,6.11,1.4,46.75,5.32,87.19,24.14,120.35,57.54,39.93,40.21,58.8,89.28,58.84,145.68.1,133.82.05,267.65-.03,401.47,0,8.16-.52,16.35-1.32,24.48-9.82,100.58-94.02,179.44-194.92,180.12-139.62.95-279.26.82-418.89,0-83.57-.48-158.76-56.5-184.71-135.92-5.19-15.88-7.5-32.7-11.14-49.09,0-146.79,0-293.58,0-440.36.52-2.53,1.15-5.04,1.53-7.59,12.11-81.63,56.44-137.64,133.91-166.29,15.87-5.87,33.23-7.74,49.9-11.46ZM540.01,215.6c-67.58,0-135.17-.27-202.75.08-69.35.36-121.51,52.11-121.69,121.27-.35,135.43-.34,270.86,0,406.29.17,68.86,52,121.04,120.85,121.27,135.69.45,271.39.45,407.08,0,68.57-.23,120.59-51.96,120.85-120.44.52-135.96.22-271.91.08-407.87-.02-21.46-5.03-41.95-16.05-60.5-23.93-40.27-60.22-59.6-106.41-59.97-67.31-.53-134.64-.14-201.95-.13Z"/><path class="cls-1" d="M539.9,742.87c-113.56-.03-202.9-89.64-202.66-203.25.24-113.27,89.53-202.3,202.84-202.25,113.62.05,202.91,89.59,202.66,203.23-.25,113.27-89.54,202.31-202.84,202.27ZM539.68,661.88c68.52.16,121.69-52.58,122.05-121.08.37-68.86-52.62-122.28-121.46-122.44-68.53-.16-121.7,52.58-122.05,121.06-.35,68.87,52.64,122.3,121.45,122.47Z"/><path class="cls-1" d="M783.3,337.39c-.03,22.39-18.74,40.89-41,40.54-22.18-.35-40.16-18.55-40.13-40.62.03-22.38,18.74-40.88,41-40.53,22.21.35,40.16,18.5,40.13,40.61Z"/></g></svg>